<?xml version="1.0" encoding="utf-8"?>
<!-- Generator: Adobe Illustrator 26.0.3, SVG Export Plug-In . SVG Version: 6.00 Build 0)  -->
<svg version="1.1" id="Layer_1" xmlns="http://www.w3.org/2000/svg" xmlns:xlink="http://www.w3.org/1999/xlink" x="0px" y="0px"
	 viewBox="0 0 455 266" style="enable-background:new 0 0 455 266;" xml:space="preserve">
<style type="text/css">
	.st0{clip-path:url(#SVGID_00000180326208059488350040000006132964355259317903_);}
	.st1{fill:#BCD6FF;}
	.st2{fill:#557FBE;}
	.st3{fill:#2B80FF;}
	.st4{fill:none;stroke:#FFFFFF;stroke-miterlimit:10;}
	.st5{fill:none;stroke:#000000;stroke-miterlimit:10;}
	.st6{fill:#8AB8FF;}
	.st7{fill:#3586FF;}
	.st8{fill:#438EFF;}
	.st9{stroke:#FFFFFF;stroke-miterlimit:10;}
	.st10{fill:none;stroke:#000000;stroke-width:2.4387;stroke-miterlimit:10;}
	.st11{fill:#65A3FF;}
	.st12{fill:#FFFFFF;}
	.st13{fill:#1B3594;}
	.st14{fill:none;stroke:#FFFFFF;stroke-width:2;stroke-miterlimit:9.9996;}
	.st15{fill:none;stroke:#FFFFFF;stroke-width:1.9998;stroke-miterlimit:9.9994;}
	.st16{fill:none;stroke:#FFAC00;stroke-miterlimit:10;}
	.st17{fill:none;stroke:#000000;stroke-width:1.9998;stroke-miterlimit:9.9992;}
	.st18{fill:none;stroke:#000000;stroke-width:2;stroke-miterlimit:9.9998;}
	.st19{fill:none;stroke:#FFFFFF;stroke-width:1.9998;stroke-miterlimit:9.9992;}
	.st20{fill:#FFAC00;}
	.st21{fill:#0E3F87;}
	.st22{clip-path:url(#SVGID_00000131337023150537314940000003217039427010961043_);fill:none;stroke:#2E99FF;stroke-miterlimit:10;}
	.st23{clip-path:url(#SVGID_00000139995440680352740850000014512588362369054651_);fill:none;stroke:#2E99FF;stroke-miterlimit:10;}
	.st24{clip-path:url(#SVGID_00000055685761572079049000000014270908194557775498_);fill:none;stroke:#2E99FF;stroke-miterlimit:10;}
	.st25{clip-path:url(#SVGID_00000144298714751559185450000016532067800288507067_);fill:none;stroke:#2E99FF;stroke-miterlimit:10;}
	.st26{clip-path:url(#SVGID_00000145751572279198200680000012804492898156189348_);fill:none;stroke:#2E99FF;stroke-miterlimit:10;}
	.st27{clip-path:url(#SVGID_00000066476159925935946810000004738406226526122390_);fill:none;stroke:#2E99FF;stroke-miterlimit:10;}
	.st28{fill:none;stroke:#B0DDFF;stroke-miterlimit:10;}
	.st29{fill:none;stroke:#000000;stroke-width:2.0001;stroke-miterlimit:10.0003;}
	.st30{fill:#4C9D34;}
	.st31{clip-path:url(#SVGID_00000107572676167576851600000002841811688132591008_);}
	.st32{fill:none;stroke:#1B3594;stroke-miterlimit:10;}
</style>
<g>
	<defs>
		<rect id="SVGID_1_" width="455" height="266"/>
	</defs>
	<clipPath id="SVGID_00000098905580028028667340000013316873305756178585_">
		<use xlink:href="#SVGID_1_"  style="overflow:visible;"/>
	</clipPath>
	<g style="clip-path:url(#SVGID_00000098905580028028667340000013316873305756178585_);">
		<path class="st1" d="M158.65,120.2c73.14,0,132.43,59.29,132.43,132.43s-59.29,82.75-132.43,82.75s-132.43-9.61-132.43-82.75
			S85.51,120.2,158.65,120.2z"/>
		<path class="st1" d="M386.13,153.22c60.96,0,110.38,45.25,110.38,101.06s-49.42,80.06-110.38,80.06s-110.38-24.24-110.38-80.06
			S325.17,153.22,386.13,153.22z"/>
		<path class="st2" d="M11.32,251.38v103.87h366.36l91.8-25.68C275.2,251.33,69.54,249.54,11.32,251.38z"/>
		<rect x="406.15" y="33.2" class="st3" width="23.79" height="37.95"/>
		<polygon points="397.9,105.78 397.9,43.53 425.77,71.4 425.77,105.78 		"/>
		<path class="st4" d="M274.21,355.25c0.25-1.79,0.2-3.48-0.05-5.22l6.01-1.74l-1.64-5.61l-6.06,1.74
			c-1.39-3.08-3.53-5.81-6.36-7.95l3.03-5.51l-5.12-2.83l-3.03,5.51c-3.28-1.24-6.76-1.59-10.08-1.14l-1.69-6.06l-5.61,1.64
			l1.74,6.06c-3.08,1.39-5.86,3.53-8,6.36l-5.46-3.03l-2.83,5.12l5.46,3.03c-1.19,3.13-1.59,6.46-1.24,9.64"/>
		<line class="st5" x1="258.81" y1="51.68" x2="317.72" y2="82.73"/>
		<rect x="385.23" y="105.78" class="st6" width="73.52" height="247.24"/>
		<path class="st7" d="M385.23,244.23l73.52,31v80.03h-73.52C385.23,355.25,385.23,242.98,385.23,244.23z"/>
		<line class="st5" x1="330.69" y1="87.45" x2="454.73" y2="60.37"/>
		<circle class="st7" cx="336.3" cy="87.3" r="23.05"/>
		<circle class="st6" cx="246.64" cy="45.92" r="16.69"/>
		<circle cx="431.88" cy="128.33" r="15.15"/>
		<line class="st5" x1="468.79" y1="79.45" x2="435.88" y2="120.06"/>
		<line class="st5" x1="396.06" y1="139.16" x2="396.06" y2="355.25"/>
		<line class="st5" x1="449.22" y1="281.73" x2="449.22" y2="355.25"/>
		<line class="st5" x1="426.36" y1="205.58" x2="426.36" y2="355.25"/>
		<line class="st5" x1="411.46" y1="173.74" x2="411.46" y2="355.25"/>
		<line class="st5" x1="438.29" y1="244.52" x2="438.29" y2="355.25"/>
		<polygon class="st8" points="438.29,44.38 404.56,84.12 404.56,105.63 438.29,105.63 		"/>
		<path d="M288.27,207.76v30.05c23.55,0.15,42.57,19.27,42.57,42.82s-19.03,42.67-42.57,42.82v31.79h67.21V207.76H288.27z"/>
		<path class="st9" d="M309.43,278.65c0-11.72-9.44-21.26-21.16-21.41v42.82C299.99,299.96,309.43,290.42,309.43,278.65z"/>
		<path class="st9" d="M309.43,280.64c0,11.72-9.44,21.26-21.16,21.41v11.38c17.98-0.15,32.54-14.75,32.54-32.79
			c0-18.03-14.56-32.64-32.54-32.79v11.38C299.99,259.38,309.43,268.91,309.43,280.64z"/>
		<line class="st5" x1="444.45" y1="136.78" x2="494.17" y2="154.91"/>
		<rect x="324.49" y="179.46" class="st10" width="46.34" height="46.34"/>
		<circle class="st3" cx="287.87" cy="280.54" r="22.65"/>
		<polyline class="st4" points="34.87,143.28 187.87,143.28 187.87,191.42 257.22,191.42 256.27,328.48 		"/>
		<path class="st11" d="M337.19,170.36c-0.01,0-0.02,0-0.03,0c-4.33-28.65-28.99-50.65-58.8-50.65c-14.34,0-27.48,5.08-37.72,13.52
			c0.03,0.02,0.06,0.04,0.09,0.06c-12.97,10.9-21.18,27.18-21.18,45.42c0,32.74,26.49,59.23,59.11,59.23s59.11-26.54,59.11-59.23
			C337.79,175.85,337.59,173.05,337.19,170.36z"/>
		<path d="M115.79,270.75c0-0.75-0.05-1.54-0.05-2.29v-0.1l0,0c-1.24-19.67-17.54-35.22-37.51-35.22s-36.26,15.55-37.51,35.22h-0.1
			v86.68h75.11v-82.02C115.74,272.29,115.79,271.5,115.79,270.75z"/>
		<rect x="101.43" y="101.21" class="st6" width="77.74" height="253.5"/>
		<rect x="118.62" y="147.71" class="st7" width="80.68" height="207.55"/>
		<path class="st5" d="M63.33,273.04c1.59-2.83,4.67-4.42,7.15-6.51c1.44-1.19,2.68-2.58,3.87-4.02c-0.2,0.05-0.4,0.1-0.6,0.1"/>
		<path class="st5" d="M53.35,250.83c3.18,2.93,7.4,4.87,9.64,8.59c-0.25-0.2-0.5-0.4-0.75-0.55"/>
		<polyline class="st5" points="325.17,200.56 283.15,200.56 283.15,232.25 		"/>
		<ellipse class="st12" cx="287.87" cy="280.54" rx="12.12" ry="12.12"/>
		<polygon class="st13" points="118.67,268.47 98.75,268.47 98.8,289.28 77.14,289.28 77.14,312.68 55.63,312.68 55.63,337.37 
			35.41,337.37 35.41,355.25 118.67,355.25 		"/>
		<polyline class="st4" points="35.31,355.3 35.31,337.37 55.14,337.37 55.14,312.68 76.65,312.68 76.65,289.28 98.3,289.28 
			98.25,268.47 118.32,268.47 118.67,247.85 136.6,247.85 		"/>
		<g>
			
				<rect x="142.36" y="221.67" transform="matrix(0.866 -0.5 0.5 0.866 -105.0599 114.0421)" class="st14" width="35.81" height="62.79"/>
			
				<rect x="154.89" y="254.42" transform="matrix(0.7071 -0.7071 0.7071 0.7071 -137.2745 188.6547)" class="st12" width="8.4" height="11.23"/>
			
				<rect x="149.43" y="211.81" transform="matrix(0.343 -0.9393 0.9393 0.343 -104.9548 294.1826)" class="st15" width="16.79" height="20.61"/>
			<rect x="146.79" y="183.57" class="st16" width="10.18" height="10.18"/>
		</g>
		
			<rect x="145.24" y="327.35" transform="matrix(0.8063 -0.5915 0.5915 0.8063 -167.2576 152.7871)" class="st12" width="8.84" height="8.84"/>
		
			<rect x="152.4" y="344.03" transform="matrix(0.3895 -0.921 0.921 0.3895 -224.2693 352.5965)" class="st12" width="2.88" height="2.88"/>
		<rect x="163.93" y="166.93" class="st4" width="5.91" height="6.71"/>
		<rect x="156.28" y="158.48" class="st12" width="4.22" height="4.92"/>
		
			<rect x="124.7" y="96.44" transform="matrix(0.5913 -0.8064 0.8064 0.5913 -29.0257 148.5738)" class="st17" width="14.75" height="12.96"/>
		
			<rect x="157.86" y="110.35" transform="matrix(0.9624 -0.2716 0.2716 0.9624 -25.7371 48.3942)" class="st18" width="8.2" height="13.66"/>
		
			<rect x="155.07" y="139.72" transform="matrix(0.5913 -0.8064 0.8064 0.5913 -50.1642 190.391)" class="st19" width="15.4" height="9.93"/>
		<rect x="166.91" y="87.9" class="st20" width="8.35" height="8.35"/>
		<circle class="st4" cx="319.46" cy="221.18" r="8.94"/>
		<circle class="st12" cx="60.95" cy="256.15" r="8.94"/>
		<circle class="st4" cx="346.34" cy="257.39" r="4.32"/>
		<circle class="st4" cx="77.99" cy="270.55" r="4.32"/>
		<polygon class="st21" points="52.15,217.8 89.26,217.8 66.56,11.34 		"/>
		<g>
			<g>
				<g>
					<g>
						<defs>
							<polygon id="SVGID_00000057863822309771885320000017462408274759023528_" points="52.15,217.8 89.26,217.8 66.56,11.34 
															"/>
						</defs>
						<clipPath id="SVGID_00000019644330731317134390000009473729563579663534_">
							<use xlink:href="#SVGID_00000057863822309771885320000017462408274759023528_"  style="overflow:visible;"/>
						</clipPath>
						
							<polyline style="clip-path:url(#SVGID_00000019644330731317134390000009473729563579663534_);fill:none;stroke:#2E99FF;stroke-miterlimit:10;" points="
							46.09,194.75 54.34,202.99 61.64,194.7 70.04,204.04 77.74,194.85 86.78,205.38 94.93,194.75 						"/>
					</g>
				</g>
			</g>
			<g>
				<g>
					<g>
						<defs>
							<polygon id="SVGID_00000086654195495072493860000001536954258457121969_" points="52.15,217.8 89.26,217.8 66.56,11.34 
															"/>
						</defs>
						<clipPath id="SVGID_00000121241223620954634820000006352999918652116356_">
							<use xlink:href="#SVGID_00000086654195495072493860000001536954258457121969_"  style="overflow:visible;"/>
						</clipPath>
						
							<polyline style="clip-path:url(#SVGID_00000121241223620954634820000006352999918652116356_);fill:none;stroke:#2E99FF;stroke-miterlimit:10;" points="
							46.09,187.89 54.34,196.19 61.64,187.84 70.04,197.18 77.74,187.99 86.78,198.52 94.93,187.89 						"/>
					</g>
				</g>
			</g>
			<g>
				<g>
					<g>
						<defs>
							<polygon id="SVGID_00000011728731940007767460000015306440760350940569_" points="52.15,217.8 89.26,217.8 66.56,11.34 
															"/>
						</defs>
						<clipPath id="SVGID_00000124874958694214303380000009196085002533904001_">
							<use xlink:href="#SVGID_00000011728731940007767460000015306440760350940569_"  style="overflow:visible;"/>
						</clipPath>
						
							<polyline style="clip-path:url(#SVGID_00000124874958694214303380000009196085002533904001_);fill:none;stroke:#2E99FF;stroke-miterlimit:10;" points="
							43.61,139.41 51.86,147.66 59.16,139.36 67.55,148.7 75.25,139.51 84.3,150.04 92.44,139.41 						"/>
					</g>
				</g>
			</g>
			<g>
				<g>
					<g>
						<defs>
							<polygon id="SVGID_00000067212880951946601140000001054005243456889219_" points="52.15,217.8 89.26,217.8 66.56,11.34 
															"/>
						</defs>
						<clipPath id="SVGID_00000162350242070918478130000017290912526308405147_">
							<use xlink:href="#SVGID_00000067212880951946601140000001054005243456889219_"  style="overflow:visible;"/>
						</clipPath>
						
							<polyline style="clip-path:url(#SVGID_00000162350242070918478130000017290912526308405147_);fill:none;stroke:#2E99FF;stroke-miterlimit:10;" points="
							43.61,134.04 51.86,142.29 59.16,133.99 67.55,143.33 75.25,134.14 84.3,144.67 92.44,134.04 						"/>
					</g>
				</g>
			</g>
			<g>
				<g>
					<g>
						<defs>
							<polygon id="SVGID_00000176753925364307879570000016250049482122492840_" points="52.15,217.8 89.26,217.8 66.56,11.34 
															"/>
						</defs>
						<clipPath id="SVGID_00000157992263743939762300000006183622676408566199_">
							<use xlink:href="#SVGID_00000176753925364307879570000016250049482122492840_"  style="overflow:visible;"/>
						</clipPath>
						
							<polyline style="clip-path:url(#SVGID_00000157992263743939762300000006183622676408566199_);fill:none;stroke:#2E99FF;stroke-miterlimit:10;" points="
							40.63,84.12 48.88,92.37 56.23,84.07 64.57,93.41 72.32,84.17 81.36,94.75 89.46,84.12 						"/>
					</g>
				</g>
			</g>
			<g>
				<g>
					<g>
						<defs>
							<polygon id="SVGID_00000109725808201886503910000001572448091413090480_" points="52.15,217.8 89.26,217.8 66.56,11.34 
															"/>
						</defs>
						<clipPath id="SVGID_00000072265468694680288690000007085061196040633227_">
							<use xlink:href="#SVGID_00000109725808201886503910000001572448091413090480_"  style="overflow:visible;"/>
						</clipPath>
						
							<polyline style="clip-path:url(#SVGID_00000072265468694680288690000007085061196040633227_);fill:none;stroke:#2E99FF;stroke-miterlimit:10;" points="
							40.63,78.85 48.88,87.1 56.23,78.75 64.57,88.14 72.32,78.9 81.36,89.44 89.46,78.85 						"/>
					</g>
				</g>
			</g>
		</g>
		<polyline class="st28" points="71.08,283.37 90.55,283.37 90.55,234.44 		"/>
		<ellipse class="st29" cx="287.88" cy="280.54" rx="4.42" ry="4.42"/>
		<path class="st4" d="M240.03,317.8v-3.03h-3.23c-0.25-1.79-0.99-3.48-2.04-4.87l2.29-2.29l-2.14-2.14l-2.29,2.29
			c-1.39-1.04-3.03-1.74-4.87-1.99v-3.28h-3.03v3.28c-1.79,0.25-3.48,0.94-4.87,1.99l-2.29-2.29l-2.14,2.14l2.29,2.29
			c-1.04,1.39-1.74,3.03-2.04,4.87h-3.23v3.03h3.23c0.25,1.84,0.94,3.48,1.99,4.87l-2.29,2.29l2.14,2.14l2.24-2.24
			c1.39,1.04,3.08,1.79,4.87,2.04v3.18h3.03v-3.18c1.84-0.25,3.48-0.99,4.87-2.04l2.24,2.24l2.14-2.14l-2.29-2.29
			c1.04-1.39,1.74-3.08,1.99-4.87H240.03z"/>
		<polygon class="st30" points="377.63,355 36.01,355 36.01,355 		"/>
		<g>
			<g>
				<defs>
					<path id="SVGID_00000015350093341962012050000012412528093648745621_" d="M337.79,178.82h-59.11V119.7l0,0
						C311.33,119.7,337.79,146.17,337.79,178.82L337.79,178.82z"/>
				</defs>
				<clipPath id="SVGID_00000106833181693642446420000012472789600958841253_">
					<use xlink:href="#SVGID_00000015350093341962012050000012412528093648745621_"  style="overflow:visible;"/>
				</clipPath>
				<g style="clip-path:url(#SVGID_00000106833181693642446420000012472789600958841253_);">
					<line class="st32" x1="283.87" y1="183.96" x2="284.55" y2="118.05"/>
					<line class="st32" x1="293.04" y1="182.58" x2="293.73" y2="122.13"/>
					<line class="st32" x1="301.34" y1="182.69" x2="302.02" y2="123.24"/>
					<line class="st32" x1="309.22" y1="186.4" x2="309.81" y2="125.25"/>
					<line class="st32" x1="317.48" y1="187.7" x2="318.05" y2="128.23"/>
					<line class="st32" x1="325.26" y1="189.97" x2="325.74" y2="129.16"/>
					<line class="st32" x1="332.31" y1="191.33" x2="332.68" y2="134.49"/>
				</g>
			</g>
		</g>
	</g>
</g>
</svg>
